<svg xmlns="http://www.w3.org/2000/svg" xmlns:xlink="http://www.w3.org/1999/xlink" width="512" zoomAndPan="magnify" viewBox="0 0 384 383.999986" height="512" preserveAspectRatio="xMidYMid meet" version="1.0"><path fill="#ffffff" d="M 291.359375 85.847656 C 286.96875 86.039062 284.230469 87.503906 282.695312 90.480469 C 282.167969 91.511719 282.144531 91.800781 282.046875 98.640625 C 282 102.792969 282.046875 106.464844 282.214844 107.519531 C 282.335938 108.503906 282.433594 109.320312 282.40625 109.367188 C 282.382812 109.390625 281.28125 109.585938 279.960938 109.777344 C 274.703125 110.617188 272.808594 111.265625 271.320312 112.800781 L 270.382812 113.761719 L 268.441406 113.761719 C 267.382812 113.761719 266.160156 113.855469 265.726562 114 C 264.910156 114.214844 262.464844 115.726562 262.199219 116.160156 C 262.128906 116.304688 261.574219 116.398438 261 116.398438 C 260.328125 116.398438 259.441406 116.640625 258.625 117.046875 L 257.328125 117.671875 L 254.230469 117.167969 C 250.34375 116.496094 244.847656 116.257812 242.28125 116.640625 C 238.296875 117.214844 236.617188 117.214844 233.710938 116.640625 C 230.160156 115.921875 227.015625 115.894531 225.550781 116.59375 C 225 116.855469 223.992188 117.144531 223.34375 117.214844 C 222.214844 117.359375 222.121094 117.3125 220.222656 115.992188 C 219.167969 115.246094 217.800781 114.238281 217.246094 113.734375 C 215.761719 112.441406 214.945312 112.222656 211.824219 112.390625 C 208.609375 112.558594 208.222656 112.65625 207.863281 113.449219 C 207.550781 114.144531 207.671875 114.144531 200.878906 113.542969 C 187.871094 112.414062 179.855469 112.199219 151.800781 112.199219 C 130.414062 112.199219 125.59375 112.273438 120 112.632812 C 109.246094 113.328125 106.441406 113.664062 101.761719 114.863281 C 96.574219 116.207031 94.007812 117.574219 90.480469 120.910156 C 87.40625 123.792969 85.511719 126.359375 82.609375 131.519531 C 82.367188 131.976562 81.097656 134.183594 79.800781 136.441406 C 78.503906 138.671875 76.726562 141.816406 75.839844 143.398438 C 74.953125 144.984375 73.992188 146.6875 73.703125 147.167969 C 73.441406 147.671875 72.144531 150.167969 70.824219 152.6875 C 69.503906 155.230469 67.945312 158.230469 67.34375 159.359375 L 66.265625 161.398438 L 60.792969 161.28125 C 57.792969 161.207031 52.847656 161.160156 49.800781 161.160156 C 44.710938 161.160156 44.207031 161.207031 43.464844 161.640625 C 43.007812 161.902344 42.433594 162.40625 42.191406 162.742188 C 41.496094 163.679688 41.039062 166.535156 41.039062 170.015625 L 41.039062 173.113281 L 41.855469 173.878906 C 42.601562 174.574219 42.9375 174.695312 45.40625 175.054688 C 47.953125 175.414062 51.214844 175.824219 56.28125 176.425781 C 59.351562 176.785156 60 176.878906 60 177.046875 C 60 177.121094 58.777344 179.617188 57.289062 182.617188 C 55.777344 185.59375 53.183594 191.328125 51.480469 195.359375 C 48.046875 203.566406 47.59375 204.503906 44.640625 208.921875 C 41.425781 213.695312 41.039062 214.726562 40.871094 219 C 40.800781 220.726562 40.894531 224.160156 41.0625 226.679688 C 41.519531 232.921875 41.398438 242.0625 40.800781 246 C 39.550781 254.328125 39.238281 258.648438 39.238281 267.121094 C 39.238281 280.128906 40.777344 294.40625 42.648438 298.824219 C 43.871094 301.777344 53.855469 303.238281 62.878906 301.824219 C 66.144531 301.296875 67.65625 300.792969 68.542969 299.902344 C 69.9375 298.511719 70.703125 294.816406 71.113281 287.28125 L 71.398438 282.359375 L 100.800781 282.289062 C 116.976562 282.265625 139.488281 282.335938 150.839844 282.480469 C 162.191406 282.625 182.710938 282.816406 196.464844 282.886719 L 221.449219 283.03125 L 221.855469 285.816406 C 222.769531 291.910156 224.015625 295.582031 225.910156 297.742188 C 227.6875 299.785156 229.367188 300.167969 237 300.40625 C 242.039062 300.550781 246.910156 300.097656 248.785156 299.28125 C 251.351562 298.175781 253.296875 294.433594 255.191406 286.921875 C 256.488281 281.808594 257.015625 278.28125 257.304688 272.375 C 257.855469 260.640625 256.390625 247.609375 253.847656 241.847656 C 252.9375 239.808594 252.9375 239.375 253.441406 228.023438 C 253.824219 219.695312 253.558594 214.246094 252.335938 203.519531 C 251.28125 194.375 249.382812 187.054688 246.671875 181.582031 C 246.144531 180.550781 245.808594 179.640625 245.878906 179.566406 C 245.953125 179.472656 246.792969 179.375 247.753906 179.328125 C 252.480469 179.136719 259.007812 178.511719 259.753906 178.199219 C 261.121094 177.625 261.238281 177.3125 261.214844 174.503906 C 261.191406 172.007812 260.710938 169.007812 259.992188 166.726562 C 259.703125 165.886719 259.414062 165.480469 258.863281 165.191406 C 257.953125 164.710938 254.761719 164.472656 246.046875 164.257812 C 241.824219 164.136719 239.449219 163.992188 239.304688 163.824219 C 239.183594 163.679688 238.367188 161.855469 237.503906 159.769531 C 236.617188 157.679688 235.535156 155.160156 235.078125 154.175781 C 234.625 153.167969 234.238281 152.328125 234.238281 152.28125 C 234.238281 152.230469 233.761719 151.128906 233.160156 149.855469 C 232.558594 148.585938 232.078125 147.527344 232.078125 147.480469 C 232.078125 147.457031 231.601562 146.398438 231.023438 145.175781 C 230.449219 143.929688 229.65625 142.222656 229.273438 141.359375 C 227.617188 137.808594 225.214844 132.648438 223.753906 129.601562 C 222.910156 127.824219 222.191406 126.238281 222.167969 126.121094 C 222.070312 125.59375 223.558594 126.023438 224.039062 126.671875 C 225.359375 128.472656 227.257812 129.742188 232.199219 132.167969 C 237.214844 134.617188 241.824219 136.558594 242.6875 136.558594 C 242.855469 136.558594 244.273438 137.207031 245.855469 137.976562 C 249.121094 139.585938 251.304688 140.0625 254.207031 139.777344 C 255.816406 139.632812 255.863281 139.632812 257.328125 140.59375 C 259.152344 141.769531 260.617188 142.414062 263.160156 143.160156 L 265.078125 143.710938 L 265.222656 147.863281 C 265.320312 150.167969 265.511719 152.953125 265.65625 154.078125 C 266.257812 158.929688 266.398438 160.296875 266.398438 161.785156 C 266.398438 163.992188 267 168.070312 267.625 169.921875 C 268.753906 173.375 271.535156 178.222656 273.769531 180.601562 C 274.800781 181.703125 277.609375 184.078125 277.894531 184.078125 C 278.304688 184.078125 279.144531 185.113281 279.023438 185.472656 C 278.761719 186.265625 277.128906 197.328125 276.601562 201.742188 C 276.167969 205.414062 275.59375 210.839844 275.28125 214.320312 C 275.160156 215.710938 274.945312 217.871094 274.800781 219.121094 C 274.390625 222.984375 274.511719 229.414062 275.039062 232.921875 C 275.808594 238.03125 277.007812 242.304688 278.710938 245.878906 L 280.199219 249 L 280.246094 252.71875 C 280.320312 257.472656 280.726562 259.078125 282.070312 259.800781 C 283.128906 260.375 283.175781 260.734375 282.359375 262.320312 C 281.617188 263.785156 281.617188 263.953125 282.359375 264.289062 C 282.695312 264.433594 282.9375 264.648438 282.910156 264.742188 C 282.863281 264.839844 281.328125 266.472656 279.480469 268.367188 L 276.121094 271.824219 L 274.296875 272.136719 C 273.3125 272.28125 272.160156 272.617188 271.726562 272.878906 C 270.289062 273.769531 270.503906 275.640625 272.113281 276.3125 C 274.246094 277.222656 275.59375 277.320312 286.585938 277.296875 C 297.3125 277.273438 298.824219 277.152344 299.328125 276.382812 C 299.902344 275.542969 298.800781 270.214844 297.457031 267.167969 C 296.953125 266.039062 296.878906 265.558594 297 264.480469 C 297.121094 263.304688 297.046875 263.015625 296.425781 261.984375 L 295.726562 260.785156 L 296.398438 259.464844 C 297.359375 257.617188 297.910156 255.335938 297.71875 254.089844 C 297.625 253.535156 297.144531 252.3125 296.617188 251.351562 C 295.246094 248.808594 294.742188 247.078125 294.238281 243.167969 C 293.976562 241.222656 293.59375 238.34375 293.398438 236.761719 C 293.160156 235.078125 292.703125 232.96875 292.246094 231.671875 L 291.503906 229.464844 L 292.246094 228.433594 C 293.566406 226.558594 294 225.265625 294.359375 222.121094 C 294.984375 216.625 296.230469 211.945312 298.464844 206.617188 C 300.335938 202.128906 301.511719 201.910156 302.183594 205.921875 C 302.519531 207.886719 303.503906 214.871094 304.078125 219.191406 C 304.96875 226.078125 305.257812 234.984375 304.800781 242.28125 C 304.632812 245.015625 304.367188 246.695312 303.742188 249.238281 C 303.289062 251.089844 302.855469 253.511719 302.761719 254.640625 C 302.664062 255.886719 302.375 257.257812 302.015625 258.144531 C 301.296875 259.96875 301.296875 260.425781 302.015625 261.097656 C 302.519531 261.574219 302.566406 261.71875 302.328125 262.753906 C 302.183594 263.496094 302.183594 264.359375 302.351562 265.441406 C 302.496094 266.304688 302.6875 268.390625 302.761719 270.121094 C 302.953125 274.558594 303.335938 277.175781 303.839844 277.679688 C 304.441406 278.28125 307.703125 278.519531 311.230469 278.207031 C 315.214844 277.847656 316.558594 277.175781 316.558594 275.542969 C 316.558594 274.703125 314.953125 269.664062 314.136719 267.984375 C 313.894531 267.457031 313.679688 267 313.679688 266.976562 C 313.679688 266.953125 314.230469 266.519531 314.902344 266.039062 C 316.128906 265.175781 316.128906 265.152344 316.007812 264.046875 C 315.960938 263.425781 315.839844 262.703125 315.742188 262.441406 C 315.625 262.078125 315.742188 261.863281 316.320312 261.550781 C 317.785156 260.710938 317.832031 258.527344 316.441406 256.199219 L 315.625 254.855469 L 316.511719 253.488281 C 317.640625 251.734375 319.054688 248.449219 319.535156 246.480469 C 320.183594 243.816406 320.351562 241.96875 320.519531 236.28125 C 320.640625 231.238281 321 226.800781 321.601562 222.71875 C 321.910156 220.535156 322.273438 217.703125 322.558594 215.160156 C 322.679688 213.960938 322.945312 211.582031 323.160156 209.878906 C 323.832031 204.289062 324.359375 197.710938 324.960938 188.28125 C 325.273438 183.191406 325.246094 177.023438 324.910156 174.289062 C 324.550781 171.550781 324.550781 169.703125 324.863281 169.128906 C 325.078125 168.769531 325.222656 168.816406 326.160156 169.679688 C 327.335938 170.734375 327.742188 170.832031 328.921875 170.257812 C 329.878906 169.800781 330.792969 168.695312 331.441406 167.160156 C 331.753906 166.441406 332.039062 166.078125 332.328125 166.078125 C 332.566406 166.078125 333.3125 165.574219 333.960938 164.976562 C 335.089844 163.945312 335.207031 163.894531 335.902344 164.136719 C 336.3125 164.28125 336.769531 164.398438 336.910156 164.398438 C 337.390625 164.398438 339.960938 161.59375 343.320312 157.414062 C 349.390625 149.878906 349.320312 150.046875 349.320312 143.28125 C 349.320312 137.0625 348.816406 134.015625 347.375 131.6875 C 346.246094 129.863281 340.894531 124.824219 337.65625 122.542969 C 333.335938 119.496094 327.382812 116.160156 323.039062 114.359375 C 319.585938 112.921875 314.832031 111.742188 311.375 111.457031 C 310.199219 111.359375 309.046875 111.167969 308.808594 111 C 308.566406 110.832031 307.441406 109.847656 306.3125 108.816406 C 305.160156 107.761719 303.769531 106.558594 303.191406 106.105469 C 302.617188 105.671875 302.160156 105.238281 302.160156 105.191406 C 302.160156 105.121094 302.425781 104.761719 302.761719 104.375 C 303.070312 103.992188 303.457031 103.273438 303.601562 102.769531 C 303.9375 101.542969 303.910156 99.769531 303.550781 99.40625 C 303.335938 99.191406 303.265625 98.183594 303.335938 95.761719 C 303.40625 92.496094 303.382812 92.398438 302.734375 91.199219 C 302.375 90.550781 301.511719 89.472656 300.839844 88.824219 C 298.414062 86.519531 295.679688 85.679688 291.359375 85.847656 Z M 170.207031 131.519531 C 179.929688 131.832031 195 132.214844 203.160156 132.382812 C 210.960938 132.527344 210.863281 132.527344 211.296875 133.535156 C 211.992188 135.191406 214.34375 142.367188 215.617188 146.640625 C 217.871094 154.34375 218.207031 155.617188 218.328125 156.984375 C 218.449219 158.230469 218.425781 158.375 217.871094 158.734375 C 217.222656 159.167969 213.359375 159.527344 212.304688 159.265625 C 211.824219 159.144531 211.679688 158.953125 211.679688 158.449219 C 211.679688 157.464844 211.199219 154.152344 210.792969 152.28125 C 209.878906 148.152344 207.527344 146.496094 200.785156 145.152344 C 197.257812 144.457031 189.359375 144.40625 186.382812 145.054688 C 184.199219 145.535156 182.089844 146.519531 181.152344 147.527344 C 179.808594 148.945312 178.753906 152.496094 178.414062 156.769531 C 178.34375 157.800781 178.175781 158.710938 178.054688 158.785156 C 177.792969 158.929688 142.464844 158.472656 136.632812 158.257812 L 133.246094 158.113281 L 133.105469 155.929688 C 132.457031 146.640625 131.230469 144.480469 125.640625 142.847656 C 119.664062 141.070312 108.742188 141.070312 105.289062 142.847656 C 104.761719 143.113281 104.304688 143.257812 104.207031 143.183594 C 103.894531 142.871094 107.230469 132.742188 107.878906 132.046875 C 108.097656 131.808594 110.113281 131.6875 116.425781 131.542969 C 128.878906 131.257812 161.449219 131.257812 170.207031 131.519531 Z M 327.863281 142.871094 C 329.039062 143.640625 329.929688 144 330.71875 144 C 331.105469 144 331.679688 144.097656 332.015625 144.238281 L 332.617188 144.457031 L 331.777344 146.28125 C 330.886719 148.222656 330.238281 151.152344 330.238281 153.359375 C 330.238281 155.230469 329.230469 158.398438 328.65625 158.398438 C 328.488281 158.398438 328.34375 157.65625 328.273438 156.40625 C 328.199219 155.328125 327.863281 153.238281 327.503906 151.800781 C 327.144531 150.335938 326.6875 148.464844 326.496094 147.601562 C 325.726562 144.433594 325.824219 142.320312 326.734375 142.320312 C 326.902344 142.320312 327.40625 142.558594 327.863281 142.871094 Z M 66.601562 217.679688 C 78.359375 218.113281 93.742188 219.046875 94.320312 219.359375 C 94.871094 219.648438 95.039062 220.222656 96.742188 226.96875 L 98.015625 232.054688 L 97.414062 232.703125 L 96.839844 233.351562 L 91.441406 233.183594 C 84.214844 232.992188 70.03125 232.246094 56.640625 231.359375 C 50.496094 230.953125 49.007812 230.28125 49.273438 228.023438 C 49.703125 224.566406 52.609375 218.878906 54.550781 217.65625 C 55.222656 217.222656 55.609375 217.199219 57.839844 217.320312 C 59.230469 217.390625 63.167969 217.558594 66.601562 217.679688 Z M 237.167969 220.199219 C 239.566406 221.183594 242.640625 226.777344 242.640625 230.113281 C 242.640625 231.289062 242.566406 231.503906 241.824219 232.199219 C 241.222656 232.777344 240.527344 233.089844 239.351562 233.375 C 236.328125 234.097656 222.265625 234.671875 204.886719 234.769531 L 194.59375 234.839844 L 194.113281 234.238281 C 193.585938 233.59375 193.609375 233.257812 194.542969 229.800781 C 196.777344 221.519531 197.015625 220.800781 197.59375 220.535156 C 198.238281 220.246094 212.351562 219.9375 225.984375 219.886719 C 234.574219 219.839844 236.472656 219.886719 237.167969 220.199219 Z M 237.167969 220.199219 " fill-opacity="1" fill-rule="nonzero"/><path fill="#ffffff" d="M 151.488281 136.007812 L 151.558594 138.839844 L 146.953125 138.960938 C 143.28125 139.054688 142.273438 139.152344 141.984375 139.441406 C 141.574219 139.847656 140.398438 144.167969 140.398438 145.222656 C 140.398438 145.65625 140.566406 145.992188 140.855469 146.160156 C 141.121094 146.28125 143.761719 146.472656 146.734375 146.566406 L 152.136719 146.710938 L 152.207031 147.335938 C 152.257812 147.769531 152.449219 147.984375 152.808594 148.03125 C 153.214844 148.105469 153.335938 147.984375 153.40625 147.433594 L 153.480469 146.761719 L 159.480469 146.855469 C 167.113281 146.976562 166.609375 147.289062 165.960938 142.703125 C 165.769531 141.359375 165.480469 140.160156 165.265625 139.96875 C 164.734375 139.441406 163.222656 139.246094 158.183594 139.054688 L 153.550781 138.886719 L 153.625 136.105469 L 153.71875 133.320312 L 152.566406 133.246094 L 151.441406 133.175781 Z M 151.488281 136.007812 " fill-opacity="1" fill-rule="nonzero"/></svg>